{"title":"Far.from.the.Madding.Crowd.2015.720p.WEB-DL.DD5.1.H264-RARBG","uid":12133846,"size":3873992767,"categoryP":"video","categoryS":"hd___movies","magnet":"?xt=urn:btih:73408d888cf7a6a5896171a03de7c7903f0537bb&amp;dn=Far.from.the.Madding.Crowd.2015.720p.WEB-DL.DD5.1.H264-RARBG&amp;tr=udp%3A%2F%2Ftracker.openbittorrent.com%3A80&amp;tr=udp%3A%2F%2Fopen.demonii.com%3A1337&amp;tr=udp%3A%2F%2Ftracker.coppersurfer.tk%3A6969&amp;tr=udp%3A%2F%2Fexodus.desync.com%3A6969","seeders":1,"leechers":0,"uploader":"vickey1992","files":5,"time":1437133744,"description":"Video\nID                                       : 1\nFormat                                   : AVC\nFormat/Info                              : Advanced Video Codec\nFormat profile                           : &lt;a class=&quot;__cf_email__&quot; href=&quot;/cdn-cgi/l/email-protection&quot; data-cfemail=&quot;bdf0dcd4d3fdf18e938c&quot;&gt;[email&amp;#160;protected]&lt;/a&gt;&lt;script data-cfhash='f9e31' type=&quot;text/javascript&quot;&gt;\n/* &lt;![CDATA[ */!function(){try{var t=&quot;currentScript&quot;in document?document.currentScript:function(){for(var t=document.getElementsByTagName(&quot;script&quot;),e=t.length;e--;)if(t[e].getAttribute(&quot;data-cfhash&quot;))return t[e]}();if(t&amp;&amp;t.previousSibling){var e,r,n,i,c=t.previousSibling,a=c.getAttribute(&quot;data-cfemail&quot;);if(a){for(e=&quot;&quot;,r=parseInt(a.substr(0,2),16),n=2;a.length-n;n+=2)i=parseInt(a.substr(n,2),16)^r,e+=String.fromCharCode(i);e=document.createTextNode(e),c.parentNode.replaceChild(e,c)}t.parentNode.removeChild(t);}}catch(u){}}()/* ]]&gt; */&lt;/script&gt;\nFormat settings, CABAC                   : No\nFormat settings, ReFrames                : 2 frames\nCodec ID                                 : V_MPEG4/ISO/AVC\nDuration                                 : 1h 59mn\nBit rate                                 : 3 864 Kbps\nWidth                                    : 1 280 pixels\nHeight                                   : 532 pixels\nDisplay aspect ratio                     : 2.40:1\nFrame rate mode                          : Constant\nFrame rate                               : 23.976 fps\nColor space                              : YUV\nChroma subsampling                       : 4:2:0\nBit depth                                : 8 bits\nScan type                                : Progressive\nBits/(Pixel*Frame)                       : 0.237\nStream size                              : 3.22 GiB (89%)\nTitle                                    : Far.from.the.Madding.Crowd.2015.720p.WEB-DL.DD5.1.H264-RARBG\nLanguage                                 : English\nDefault                                  : Yes\nForced                                   : No\nColor range                              : Limited\nColor primaries                          : BT.709\nTransfer characteristics                 : BT.709\nMatrix coefficients                      : BT.709\n\nAudio\nID                                       : 2\nFormat                                   : AC-3\nFormat/Info                              : Audio Coding 3\nMode extension                           : CM (complete main)\nFormat settings, Endianness              : Big\nCodec ID                                 : A_AC3\nDuration                                 : 1h 59mn\nBit rate mode                            : Constant\nBit rate                                 : 384 Kbps\nChannel(s)                               : 6 channels\nChannel positions                        : Front: L C R, Side: L R, LFE\nSampling rate                            : 48.0 KHz\nBit depth                                : 16 bits\nCompression mode                         : Lossy\nStream size                              : 327 MiB (9%)\nTitle                                    : Far.from.the.Madding.Crowd.2015.720p.WEB-DL.DD5.1.H264-RARBG\nLanguage                                 : English\nDefault                                  : Yes\nForced                                   : No\n\nText\nID                                       : 3\nFormat                                   : UTF-8\nCodec ID                                 : S_TEXT/UTF8\nCodec ID/Info                            : UTF-8 Plain Text\nLanguage                                 : English\nDefault                                  : No\nForced                                   : No\n\nMenu\n00:00:00.000                             : en:Chapter 01\n00:05:55.000                             : en:Chapter 02\n00:09:48.000                             : en:Chapter 03\n00:12:58.000                             : en:Chapter 04\n00:15:52.000                             : en:Chapter 05\n00:19:35.000                             : en:Chapter 06\n00:23:15.000                             : en:Chapter 07\n00:27:31.000                             : en:Chapter 08\n00:30:26.000                             : en:Chapter 09\n00:33:13.000                             : en:Chapter 10\n00:35:42.000                             : en:Chapter 11\n00:39:14.000                             : en:Chapter 12\n00:42:24.000                             : en:Chapter 13\n00:47:15.000                             : en:Chapter 14\n00:53:22.000                             : en:Chapter 15\n00:56:08.000                             : en:Chapter 16\n01:02:11.000                             : en:Chapter 17\n01:04:57.000                             : en:Chapter 18\n01:08:23.000                             : en:Chapter 19\n01:10:28.000                             : en:Chapter 20\n01:13:11.000                             : en:Chapter 21\n01:16:12.000                             : en:Chapter 22\n01:19:33.000                             : en:Chapter 23\n01:22:32.000                             : en:Chapter 24\n01:25:39.000                             : en:Chapter 25\n01:28:05.000                             : en:Chapter 26\n01:33:36.000                             : en:Chapter 27\n01:38:28.000                             : en:Chapter 28\n01:41:47.000                             : en:Chapter 29\n01:44:58.000                             : en:Chapter 30\n01:48:47.000                             : en:Chapter 31\n01:55:18.000                             : en:Chapter 32","torrent":{"xt":"urn:btih:73408d888cf7a6a5896171a03de7c7903f0537bb","amp;dn":"Far.from.the.Madding.Crowd.2015.720p.WEB-DL.DD5.1.H264-RARBG","amp;tr":["udp%3A%2F%2Ftracker.openbittorrent.com%3A80","udp%3A%2F%2Fopen.demonii.com%3A1337","udp%3A%2F%2Ftracker.coppersurfer.tk%3A6969","udp%3A%2F%2Fexodus.desync.com%3A6969"],"infoHash":"73408d888cf7a6a5896171a03de7c7903f0537bb","infoHashBuffer":{"type":"Buffer","data":[115,64,141,136,140,247,166,165,137,97,113,160,61,231,199,144,63,5,55,187]},"announce":[],"urlList":[]}}